<svg width="60" height="60" viewBox="0 0 60 60" fill="none" xmlns="http://www.w3.org/2000/svg">
  <g clip-path="url(#clip0_52_905)">
    <path fill-rule="evenodd" clip-rule="evenodd" d="M45 60H15C11.0218 59.9998 7.2066 58.4194 4.39359 55.6064C1.58058 52.7934 0.000174035 48.9782 0 45L0 15C0.000174035 11.0218 1.58058 7.2066 4.39359 4.39359C7.2066 1.58058 11.0218 0.000174035 15 0L45 0C48.9782 0 52.7936 1.58035 55.6066 4.3934C58.4196 7.20644 60 11.0218 60 15V45C60 48.9782 58.4196 52.7936 55.6066 55.6066C52.7936 58.4196 48.9782 60 45 60Z" fill="#199BDF" />
    <path fill-rule="evenodd" clip-rule="evenodd" d="M28.125 16.875H45C47.1631 16.8749 49.2435 16.0441 50.8116 14.5541C52.3797 13.0642 53.3158 11.029 53.4265 8.86875C53.5372 6.70852 52.814 4.58827 51.4064 2.94587C49.9988 1.30347 48.0142 0.264358 45.8625 0.043125C45.5756 0.0271875 45.2916 0 45 0H15C11.0218 0.000174035 7.2066 1.58058 4.39359 4.39359C1.58058 7.2066 0.000174035 11.0218 0 15L0 45C0.000174041 37.5408 2.96339 30.3872 8.23781 25.1128C13.5122 19.8384 20.6658 16.8752 28.125 16.875Z" fill="#32B4FF" />
    <path fill-rule="evenodd" clip-rule="evenodd" d="M45 30C42.0333 30 39.1332 30.8797 36.6665 32.528C34.1997 34.1762 32.2771 36.5189 31.1418 39.2597C30.0065 42.0006 29.7094 45.0166 30.2882 47.9264C30.867 50.8361 32.2956 53.5088 34.3934 55.6066C36.4912 57.7044 39.1639 59.133 42.0737 59.7118C44.9834 60.2906 47.9994 59.9935 50.7403 58.8582C53.4812 57.7229 55.8238 55.8003 57.4721 53.3336C59.1203 50.8668 60 47.9667 60 45V15C60 18.9782 58.4197 22.7936 55.6066 25.6066C52.7936 28.4196 48.9783 30 45 30Z" fill="#0082BE" />
    <path fill-rule="evenodd" clip-rule="evenodd" d="M42.2625 15.9675C42.7234 15.7772 43.2265 15.7129 43.7205 15.7811C44.2144 15.8493 44.6813 16.0475 45.0734 16.3555C45.4654 16.6636 45.7686 17.0703 45.9517 17.534C46.1349 17.9978 46.1914 18.5019 46.1156 18.9947C45.0231 26.1 43.02 39.12 41.9567 46.0312C41.8831 46.5095 41.6874 46.9607 41.3885 47.3411C41.0895 47.7216 40.6975 48.0186 40.2502 48.2032C39.803 48.3879 39.3157 48.454 38.8354 48.3953C38.3551 48.3365 37.8981 48.1548 37.5085 47.8678C33.7471 45.0966 28.1077 40.9416 25.2445 38.8312C25.0235 38.6684 24.841 38.4591 24.7098 38.218C24.5786 37.9769 24.502 37.7099 24.4853 37.4359C24.4686 37.162 24.5122 36.8877 24.6131 36.6324C24.7141 36.3772 24.8698 36.1472 25.0693 35.9587C27.6929 33.4809 32.9184 28.5459 36.5136 25.1503C36.5983 25.0698 36.6498 24.9606 36.6582 24.8441C36.6666 24.7276 36.6311 24.6121 36.5588 24.5204C36.4865 24.4286 36.3825 24.3672 36.2672 24.3481C36.152 24.329 36.0337 24.3536 35.9357 24.4172C31.3259 27.4237 24.266 32.0278 20.8059 34.2844C20.1574 34.7073 19.4286 34.9918 18.6651 35.12C17.9016 35.2483 17.1199 35.2175 16.3689 35.0297C14.4636 34.5534 11.7154 33.8662 9.26973 33.255C8.88683 33.1593 8.54389 32.9453 8.28974 32.6433C8.03559 32.3414 7.88321 31.9669 7.85429 31.5733C7.82536 31.1797 7.92139 30.787 8.12867 30.4512C8.33595 30.1153 8.64393 29.8534 9.00873 29.7028C17.5224 26.1862 34.1834 19.305 42.2625 15.9675Z" fill="white" />
  </g>
  <defs>
    <clipPath id="clip0_52_905">
      <rect width="60" height="60" fill="white" />
    </clipPath>
  </defs>
</svg>